Coordinates
version=1
nRows=24
nColumns=34
inDegrees=no

Units are S.I. units (second, meters, Newtons, ...)
If the header above contains a line with 'inDegrees', this indicates whether rotational values are in degrees (yes) or radians (no).

endheader
time	pelvis_tilt	pelvis_list	pelvis_rotation	pelvis_tx	pelvis_ty	pelvis_tz	hip_flexion_r	hip_adduction_r	hip_rotation_r	knee_angle_r	ankle_angle_r	subtalar_angle_r	mtp_angle_r	hip_flexion_l	hip_adduction_l	hip_rotation_l	knee_angle_l	ankle_angle_l	subtalar_angle_l	mtp_angle_l	lumbar_extension	lumbar_bending	lumbar_rotation	arm_flex_r	arm_add_r	arm_rot_r	elbow_flex_r	pro_sup_r	arm_flex_l	arm_add_l	arm_rot_l	elbow_flex_l	pro_sup_l
0.46	0.0490319	-0.0542084	-0.119062	0.351794	0.953571	-0.233995	-0.1011	0.0445486	-0.309581	0.264972	0.515906	0.365758	-0.00983064	0.444686	-0.105715	-0.159165	0.266821	-0.0227863	-0.0809855	-0.0102331	-0.17103	0.0652671	0.0665304	0.117207	-0.237294	-0.0992472	0.802622	1.99763	-0.262078	-0.104839	-0.356931	0.505543	1.79851
0.47	0.0511439	-0.0548933	-0.124721	0.363506	0.951634	-0.233997	-0.11639	0.0391049	-0.321661	0.269649	0.531815	0.389931	-0.00982705	0.433848	-0.103971	-0.16	0.211232	-0.00945502	-0.0537771	-0.0102249	-0.175405	0.065336	0.0693628	0.127449	-0.239613	-0.090297	0.80668	1.99673	-0.269477	-0.102956	-0.364389	0.507924	1.79355
0.48	0.052958	-0.0553782	-0.12979	0.375339	0.949644	-0.234092	-0.131234	0.0335666	-0.332435	0.274516	0.546507	0.410865	-0.00982346	0.423966	-0.101723	-0.157311	0.161825	0.00497836	-0.0311313	-0.0102167	-0.179194	0.065199	0.0715146	0.136735	-0.241388	-0.0821435	0.810444	1.99627	-0.276016	-0.101355	-0.370912	0.509321	1.78814
0.49	0.0544926	-0.055505	-0.134219	0.387296	0.947635	-0.234269	-0.145638	0.0279789	-0.341147	0.27945	0.559663	0.427477	-0.00981987	0.415483	-0.0990877	-0.151936	0.119979	0.0196023	-0.0143516	-0.0102085	-0.182395	0.0646224	0.0730333	0.14487	-0.242514	-0.0749855	0.814005	1.99618	-0.281574	-0.100215	-0.376389	0.509696	1.78227
0.5	0.0557937	-0.0551045	-0.137984	0.399378	0.945637	-0.234513	-0.15964	0.0223549	-0.347099	0.284329	0.570974	0.43881	-0.00981629	0.408743	-0.0961186	-0.144965	0.0868701	0.0334828	-0.00426198	-0.0102003	-0.185034	0.0633562	0.0739761	0.151671	-0.242905	-0.068987	0.817439	1.99632	-0.286048	-0.0996857	-0.380758	0.509046	1.776
0.51	0.0569101	-0.0540223	-0.141082	0.41159	0.943682	-0.234812	-0.173289	0.0166871	-0.349717	0.289039	0.580151	0.444123	-0.0098127	0.403977	-0.0928163	-0.137567	0.0633304	0.0456966	-0.00118562	-0.0101921	-0.187133	0.0611726	0.0744095	0.156972	-0.2425	-0.064269	0.820814	1.99661	-0.289375	-0.0998745	-0.38402	0.507412	1.76941
0.52	0.0578713	-0.0521412	-0.143535	0.42394	0.941795	-0.235154	-0.186623	0.0109584	-0.348611	0.293492	0.586941	0.442956	-0.00980912	0.401291	-0.0891442	-0.130828	0.0497333	0.0553552	-0.00497113	-0.0101838	-0.188692	0.0579016	0.0744079	0.160625	-0.24128	-0.0609043	0.824182	1.99694	-0.291533	-0.10083	-0.386234	0.504881	1.7626
0.53	0.0586732	-0.0493941	-0.145386	0.43644	0.939994	-0.235534	-0.199648	0.00514507	-0.343613	0.297647	0.591139	0.435176	-0.00980553	0.400664	-0.0850507	-0.125617	0.0459145	0.0616353	-0.0150483	-0.0101756	-0.189666	0.0534536	0.0740519	0.162497	-0.239269	-0.0589146	0.827585	1.99729	-0.292548	-0.102537	-0.387511	0.501584	1.75573
0.54	0.0592765	-0.0457671	-0.146694	0.449107	0.938288	-0.23595	-0.212321	-0.000786349	-0.334801	0.301528	0.592599	0.420976	-0.00980195	0.401944	-0.0804846	-0.122505	0.0511579	0.06383	-0.0304981	-0.0101674	-0.189973	0.047825	0.0734236	0.162483	-0.236534	-0.05827	0.831045	1.99764	-0.292487	-0.104925	-0.387983	0.497689	1.74898
0.55	0.0596168	-0.0412907	-0.14753	0.461959	0.936679	-0.236407	-0.224555	-0.00688528	-0.322487	0.305246	0.591225	0.400847	-0.00979837	0.404863	-0.0754045	-0.12176	0.0642578	0.0614321	-0.0501278	-0.0101592	-0.189503	0.0410866	0.0726015	0.160508	-0.233179	-0.0588937	0.834553	1.99803	-0.291453	-0.107873	-0.387776	0.493387	1.74251
0.56	0.0596388	-0.0360153	-0.147965	0.475019	0.935195	-0.236924	-0.236218	-0.0132197	-0.307179	0.309012	0.586957	0.375489	-0.00979479	0.409055	-0.0697819	-0.12338	0.0836527	0.0542427	-0.0725521	-0.010151	-0.188142	0.0333654	0.0716524	0.156542	-0.229323	-0.0606703	0.838067	1.99849	-0.28957	-0.111235	-0.386976	0.488873	1.73648
0.57	0.0592989	-0.0300098	-0.148065	0.488302	0.93385	-0.237512	-0.247147	-0.0198785	-0.289511	0.313146	0.579733	0.345707	-0.00979121	0.414085	-0.0635935	-0.127162	0.107612	0.0424815	-0.0962878	-0.0101428	-0.185808	0.0248086	0.0706233	0.150602	-0.225088	-0.0634565	0.841497	1.99907	-0.286968	-0.114857	-0.38561	0.484336	1.73102
0.58	0.0585924	-0.0233447	-0.147881	0.501817	0.932661	-0.238187	-0.257155	-0.0269601	-0.270169	0.318078	0.569439	0.312276	-0.00978763	0.419487	-0.0568176	-0.13277	0.134431	0.0268616	-0.119874	-0.0101345	-0.182474	0.0155612	0.0695342	0.142762	-0.220579	-0.0670945	0.844712	1.99979	-0.283775	-0.118594	-0.383634	0.479946	1.72622
0.59	0.0575654	-0.0160848	-0.147441	0.515565	0.931646	-0.238959	-0.266029	-0.0345606	-0.249813	0.324352	0.555856	0.275836	-0.00978406	0.424794	-0.0494272	-0.139782	0.162609	0.00859378	-0.142003	-0.0101263	-0.178185	0.00574817	0.0683709	0.13315	-0.215873	-0.0714239	0.847541	2.00064	-0.280106	-0.122327	-0.380948	0.475846	1.72212
0.6	0.0563137	-0.00828529	-0.146747	0.529538	0.930824	-0.239839	-0.27352	-0.0427622	-0.229027	0.332621	0.538611	0.236825	-0.00978049	0.429573	-0.0413826	-0.147724	0.190954	-0.0107026	-0.161655	-0.0101181	-0.17306	-0.00453407	0.0670803	0.121947	-0.211012	-0.0762924	0.849789	2.00161	-0.276052	-0.125963	-0.377425	0.472152	1.71871
0.61	0.0549673	1.11461e-05	-0.145774	0.543718	0.930218	-0.240834	-0.279325	-0.0516269	-0.208297	0.343642	0.517153	0.195458	-0.00977691	0.433445	-0.0326248	-0.156082	0.21863	-0.0291811	-0.17819	-0.0101098	-0.167281	-0.0152165	0.0655681	0.109378	-0.206005	-0.0815626	0.851252	2.00267	-0.271677	-0.129438	-0.372954	0.468962	1.716
0.62	0.053665	0.00877401	-0.144466	0.558077	0.929849	-0.241952	-0.283069	-0.0611978	-0.188009	0.358254	0.490752	0.151768	-0.00977334	0.436103	-0.0230714	-0.164321	0.245118	-0.0450117	-0.191392	-0.0101016	-0.16107	-0.0262512	0.0637024	0.0957023	-0.200839	-0.0871187	0.851743	2.00377	-0.267017	-0.132705	-0.367478	0.466359	1.71398
0.63	0.0525258	0.0179825	-0.142748	0.572576	0.92973	-0.243199	-0.284293	-0.0715038	-0.168465	0.377337	0.458541	0.105678	-0.00976977	0.43732	-0.0126176	-0.171901	0.270128	-0.0566376	-0.201441	-0.0100934	-0.15466	-0.0376023	0.0613235	0.0812001	-0.19549	-0.0928703	0.851102	2.00493	-0.262079	-0.135731	-0.361018	0.464421	1.71269
0.64	0.0516255	0.0276225	-0.140536	0.587171	0.929871	-0.244582	-0.28246	-0.0825679	-0.149903	0.401744	0.4196	0.0571067	-0.0097662	0.436949	-0.00114726	-0.178317	0.293489	-0.0629882	-0.208818	-0.0100851	-0.148267	-0.0492351	0.0582599	0.0661653	-0.189934	-0.0987564	0.849215	2.00615	-0.256843	-0.138489	-0.35368	0.463233	1.71217
0.65	0.0509851	0.0376795	-0.137751	0.601806	0.930265	-0.246106	-0.276991	-0.0944094	-0.132522	0.43221	0.373101	0.00606992	-0.00976263	0.43492	0.0114471	-0.183145	0.315053	-0.0636031	-0.214166	-0.0100769	-0.142063	-0.0611067	0.0543488	0.0508934	-0.184156	-0.104746	0.846016	2.00751	-0.251269	-0.140959	-0.345633	0.462894	1.71251
0.66	0.0505658	0.0481217	-0.134344	0.616423	0.930899	-0.24777	-0.26732	-0.107043	-0.11648	0.469238	0.318479	-0.0472245	-0.00975907	0.431231	0.0252362	-0.186089	0.334628	-0.0586463	-0.218144	-0.0100686	-0.136167	-0.0731621	0.0494604	0.0356712	-0.178157	-0.110835	0.841487	2.0091	-0.245301	-0.143126	-0.337081	0.463522	1.71378
0.67	0.0502684	0.0588951	-0.130303	0.63096	0.931748	-0.249573	-0.252977	-0.120466	-0.101896	0.512995	0.25565	-0.102319	-0.0097555	0.425934	0.0402194	-0.187021	0.351965	-0.0488145	-0.221307	-0.0100604	-0.130652	-0.085324	0.0435218	0.0207678	-0.171958	-0.117039	0.835653	2.01104	-0.238876	-0.14499	-0.328216	0.465249	1.716
0.68	0.0499606	0.0699155	-0.12568	0.645359	0.932784	-0.2515	-0.233659	-0.134634	-0.0888288	0.563223	0.18522	-0.158492	-0.00975194	0.419119	0.056293	-0.186005	0.366786	-0.0351694	-0.224024	-0.0100522	-0.12555	-0.0974831	0.0365358	0.00642329	-0.165601	-0.123376	0.828576	2.01345	-0.23193	-0.146562	-0.319192	0.468213	1.71914
0.69	0.049506	0.0810528	-0.120594	0.659566	0.933972	-0.253529	-0.209298	-0.149431	-0.0772479	0.619201	0.108649	-0.214791	-0.00974837	0.410908	0.0732266	-0.18329	0.378839	-0.0189329	-0.226445	-0.0100439	-0.120864	-0.10949	0.0285931	-0.00715961	-0.159153	-0.129854	0.820342	2.01643	-0.224397	-0.147874	-0.310088	0.472529	1.72308
